<?xml version="1.0" encoding="UTF-8" standalone="no"?>
<!-- Created with Inkscape (http://www.inkscape.org/) -->

<svg
   version="1.1"
   id="svg2"
   width="256.00003"
   height="256"
   viewBox="0 0 256.00003 256"
   sodipodi:docname="a770e921-ad60-48a4-99ec-8fcd363dcd9d.pdf"
   xmlns:inkscape="http://www.inkscape.org/namespaces/inkscape"
   xmlns:sodipodi="http://sodipodi.sourceforge.net/DTD/sodipodi-0.dtd"
   xmlns="http://www.w3.org/2000/svg"
   xmlns:svg="http://www.w3.org/2000/svg">
  <defs
     id="defs6">
    <clipPath
       clipPathUnits="userSpaceOnUse"
       id="clipPath16">
      <path
         d="M 0,403.159 H 413.903 V 0 H 0 Z"
         id="path14" />
    </clipPath>
  </defs>
  <sodipodi:namedview
     id="namedview4"
     pagecolor="#ffffff"
     bordercolor="#000000"
     borderopacity="0.25"
     inkscape:showpageshadow="2"
     inkscape:pageopacity="0.0"
     inkscape:pagecheckerboard="0"
     inkscape:deskcolor="#d1d1d1"
     showgrid="false" />
  <g
     id="g8"
     inkscape:groupmode="layer"
     inkscape:label="a770e921-ad60-48a4-99ec-8fcd363dcd9d"
     transform="matrix(1.3333333,0,0,-1.3333333,-61.22853,483.47933)">
    <g
       id="g10"
       transform="matrix(0.59616222,0,0,0.59616222,18.544796,146.43542)">
      <g
         id="g12"
         clip-path="url(#clipPath16)">
        <g
           id="g18"
           transform="translate(206.9514,362.6095)">
          <path
             d="m 0,0 c 88.691,0 161.03,-72.337 161.03,-161.03 0,-88.692 -72.339,-161.03 -161.03,-161.03 -88.692,0 -161.03,72.338 -161.03,161.03 C -161.03,-72.337 -88.692,0 0,0 m 0.454,-3.629 c 86.443,0 156.946,-70.504 156.946,-156.947 0,-86.443 -70.503,-156.947 -156.946,-156.947 -86.444,0 -156.948,70.504 -156.948,156.947 0,86.443 70.504,156.947 156.948,156.947"
             style="fill:#2056ae;fill-opacity:1;fill-rule:evenodd;stroke:none"
             id="path20" />
        </g>
        <g
           id="g22"
           transform="translate(206.4978,302.9601)">
          <path
             d="m 0,0 c 55.588,0 100.927,-45.338 100.927,-100.927 0,-55.589 -45.339,-100.926 -100.927,-100.926 -55.589,0 -100.928,45.337 -100.928,100.926 C -100.928,-45.338 -55.589,0 0,0 m 0,-3.855 c 53.465,0 97.071,-43.607 97.071,-97.072 0,-53.464 -43.606,-97.071 -97.071,-97.071 -53.465,0 -97.072,43.607 -97.072,97.071 0,53.465 43.607,97.072 97.072,97.072"
             style="fill:#2056ae;fill-opacity:1;fill-rule:evenodd;stroke:none"
             id="path24" />
        </g>
        <g
           id="g26"
           transform="translate(75.2996,258.024)">
          <path
             d="M 0,0 C 0.385,0.619 1.493,1.365 2.256,0.899 2.739,0.6 3.006,0.447 3.174,0.225 3.341,0.003 3.504,-0.289 3.598,-0.036 3.692,0.218 3.85,1.318 3.875,1.671 3.899,2.024 3.929,3.214 3.874,3.406 3.818,3.599 3.793,5.094 3.16,5.389 2.525,5.685 1.511,5.651 0.089,4.721 -1.165,3.902 -1.414,3.458 -2.099,2.417 -2.33,2.067 -2.575,0.664 -2.577,0.454 -2.579,0.244 -2.637,-0.75 -2.203,-1.186 -1.284,-1.822 -0.396,-0.633 0,0"
             style="fill:#2056ae;fill-opacity:1;fill-rule:evenodd;stroke:none"
             id="path28" />
        </g>
        <g
           id="g30"
           transform="translate(112.1502,305.3409)">
          <path
             d="M 0,0 C 0,0 1.128,1.034 1.778,0.617 2.104,0.41 3.924,-0.998 5.675,-1.823 7.43,-2.652 9.129,-2.901 9.482,-3.192 10.196,-3.776 9.892,-5.093 9.75,-5.361 9.608,-5.63 9.201,-5.675 9.064,-6.39 8.927,-7.104 8.273,-7.21 8.674,-8.733 c 0.401,-1.524 0.539,-2.714 1.546,-3.2 1.008,-0.487 3.018,-2.615 3.68,-3.394 0.662,-0.78 3.124,-1.474 4.759,0.173 0.977,0.98 1.776,1.102 2.415,1.991 0.821,1.146 0.307,2.037 1.185,-0.125 0.544,-1.334 -1.139,-5.396 -2.078,-6.283 -0.52,-0.494 -3.003,-1.875 -3.738,-1.558 -0.696,0.297 -4.921,4.641 -4.928,4.672 -0.232,1.146 -1.294,2.927 -1.587,3.272 -0.294,0.346 -3,3.271 -3.194,3.849 C 5.83,-6.649 2.83,-4.89 1.838,-3.477 1.478,-2.964 0.665,-1.223 0.524,-0.969 0.384,-0.714 0,0 0,0"
             style="fill:#2056ae;fill-opacity:1;fill-rule:evenodd;stroke:none"
             id="path32" />
        </g>
        <g
           id="g34"
           transform="translate(128.4084,306.3219)">
          <path
             d="M 0,0 C 0.887,0.532 2.279,2.83 2.536,4.016 2.792,5.201 3.224,7.104 3.999,8.28 4.774,9.457 6.408,10.84 7.192,11.138 8.63,11.688 10.246,11.297 9.87,9.389 9.723,8.653 8.565,6.568 8.762,6.241 9.716,4.657 10.259,5.944 10.755,4.211 11,3.351 10.985,1.817 11.479,1.174 c 0.62,-0.805 1.392,-1.608 1.711,-1.112 0.32,0.495 2.822,4.693 3.55,4.792 0.728,0.1 3.235,1.335 4.563,-0.059 1.328,-1.394 1.021,-1.729 0.658,-2.259 -0.363,-0.529 -2.473,-2.569 -4.102,-2.96 -1.954,-0.464 -5.98,-5.319 -6.991,-7.232 -0.569,-1.07 -1.63,-2.088 -2.162,-2.243 -0.533,-0.155 -1.608,-1.067 -1.977,-0.195 -0.923,2.17 2.107,3.607 3.024,5.755 0.101,0.234 -2.704,6.235 -3.234,6.6 C 5.986,2.626 5.846,2.877 5.589,2.658 5.332,2.44 4.975,1.989 4.975,1.989 L 3.988,-0.332 c 0,0 -0.727,-1.061 -1.322,-1.493 C 2.071,-2.257 0.686,-2.54 0.686,-2.54 -0.613,-3.179 -2.565,-1.54 0,0"
             style="fill:#2056ae;fill-opacity:1;fill-rule:evenodd;stroke:none"
             id="path36" />
        </g>
        <g
           id="g38"
           transform="translate(170.2776,332.2194)">
          <path
             d="m 0,0 c 0.534,0.208 2.245,-0.478 3.291,-0.214 1.385,0.348 2.495,0.698 3.724,1.196 3.703,1.507 6.107,2.699 9.597,4.572 1.649,0.883 3.843,0 3.84,-0.835 C 20.447,3.885 17.333,2.458 16.665,2.233 15.997,2.007 11.784,-0.989 11.394,-1.371 11.001,-1.752 9.101,-3.575 10.863,-5.108 c 1.762,-1.533 1.534,-1.126 1.586,-2.071 0.107,-2.002 -1.242,-3.067 -1.617,-4.382 -0.474,-1.669 -0.608,-2.792 2.687,-1.741 1.133,0.358 3.592,1.143 6.227,2.237 0.796,0.331 1.632,0.614 2.467,0.15 1.075,-0.599 3.152,-0.39 3.533,-1.843 0.579,-2.218 -0.248,-2.795 -1.032,-3.101 -0.364,-0.141 -2.907,-0.3 -4.895,-0.065 -3.019,0.362 -6.946,-0.936 -6.946,-0.936 l -6.755,-1.323 -6.056,-2.106 c 0,0 -4.554,-1.798 -5.808,-1.148 -1.254,0.649 -2.99,1.123 -3.583,2.516 -0.594,1.394 1.356,1.685 1.733,1.742 0.377,0.056 8.186,-0.197 11.82,2.15 3.634,2.349 3.297,6.295 2.988,7.086 -0.309,0.791 -0.479,1.928 -2.1,2.457 -1.622,0.529 -4.616,3.369 -4.616,3.369 0,0 -1.03,1.909 -0.496,2.117"
             style="fill:#2056ae;fill-opacity:1;fill-rule:evenodd;stroke:none"
             id="path40" />
        </g>
        <g
           id="g42"
           transform="translate(239.5686,349.6915)">
          <path
             d="m 0,0 c 0,0 0.739,-1.157 1.255,-2.494 0.516,-1.338 0.51,-3.5 -0.071,-4.615 -0.58,-1.115 -1.865,-5.04 -1.865,-5.04 -0.176,-0.591 -1.898,-4.398 -0.576,-4.428 1.018,-0.024 1.609,-0.067 2.019,0.639 0.411,0.707 1.923,1.334 2.562,1.465 0.497,0.101 10.755,3.928 15.058,5.895 0.598,0.275 0.143,1.491 0.394,1.825 0.25,0.331 1.218,-0.217 1.218,-0.217 0,0 1.982,-1.908 1.159,-3.767 -0.823,-1.858 -1.026,-1.554 -2.409,-1.443 -3.657,0.287 -2.52,0.016 -5.262,-0.831 -1.03,-0.316 -10.485,-2.189 -10.151,-3.138 0.333,-0.949 1.161,-0.77 1.161,-0.77 0,0 2.332,-0.374 2.397,-0.916 0.066,-0.541 0.819,-1.311 -0.108,-2.396 -0.927,-1.085 -4.406,-2.806 -5.581,-3.798 -1.176,-0.992 -2.305,-1.293 -1.917,-1.568 0.389,-0.276 2.226,-0.672 2.226,-0.672 0,0 1.909,-0.57 1.297,-0.973 -0.611,-0.403 -1.482,-0.005 -2.144,-0.663 -0.661,-0.657 -0.579,-2.305 -0.579,-2.305 0,0 1.188,0.201 1.934,0.839 0.745,0.638 0.829,0.623 0.946,0.334 0.117,-0.29 0.179,-1.271 -0.383,-1.861 -0.562,-0.59 -3.428,-2.492 -3.553,-3.075 -0.052,-0.255 -0.349,0.39 -1.65,-4.931 -0.539,-2.2 -0.165,-4.178 -0.171,-4.258 -0.016,-0.215 -1.406,-1.122 -2.224,0.795 -0.819,1.915 -3.749,1.659 -3.749,1.659 -1.818,-2.594 -0.402,-2.386 -3.251,-2.838 -3.249,-0.518 -4.448,3.329 -4.448,3.329 -0.381,2.998 1.517,4.763 2.307,1.903 0.456,-1.657 1.196,-2.316 2.3,-1.869 0.565,0.227 0.861,1.59 2.519,1.95 0.409,0.09 1.093,-0.731 1.446,-0.728 1.055,0.007 1.859,-0.237 2.518,0.088 0.88,0.434 1.58,1.351 0.907,1.93 -0.673,0.578 -2.376,0.841 -2.876,1.826 -0.5,0.986 -1.982,1.909 -1.42,2.498 0.561,0.59 3.889,0.525 3.707,1.354 -0.18,0.828 -1.121,2.256 -0.476,2.389 0.644,0.133 1.909,-0.125 1.306,0.791 -0.604,0.916 -1.445,1.091 -2.082,1.84 -0.637,0.748 0.517,1.216 1.443,1.025 0.927,-0.191 2.791,0.748 2.791,0.748 0,0 7.187,3.949 6.096,4.83 -0.95,0.766 -2.739,1.442 -7.221,1.125 -0.235,-0.017 -1.021,-0.649 -1.271,-0.662 -0.251,-0.017 -0.954,0.603 -1.216,0.581 -2.344,-0.194 -4.873,-0.562 -7.97,-1.758 -1.941,-0.748 -1.437,-0.175 -1.914,-0.985 -0.889,-1.515 -2.836,-0.851 -2.87,-0.815 -0.658,0.703 -3.235,1.981 -3.43,2.489 -0.397,1.054 0.139,1.357 1.86,1.18 1.72,-0.178 7.57,0.032 9.345,0.546 1.776,0.515 4.62,0.461 5.246,1.433 0.803,1.249 1.274,3.563 1.716,5.953 0.443,2.389 0.851,4.866 0.573,6.319 -0.21,1.094 0.296,3.698 1.229,4.389 C -0.969,0.843 0,0 0,0"
             style="fill:#2056ae;fill-opacity:1;fill-rule:evenodd;stroke:none"
             id="path44" />
        </g>
        <g
           id="g46"
           transform="translate(229.2351,341.8163)">
          <path
             d="m 0,0 c 0.455,-1.208 0.809,-1.75 1.372,-1.574 0.4,0.129 5.695,1.889 4.997,1.561 C 5.444,-0.447 3.426,-1.917 2.184,-3.124 1.878,-3.423 1.646,-4.398 1.426,-4.72 0.765,-5.69 0.35,-5.954 -0.496,-5.821 c -1.129,0.175 -1.391,0.637 -1.391,0.637 0.01,0.493 -0.554,0.956 -0.748,1.493 -0.43,1.184 -0.671,2.482 -0.344,3.424 C -2.581,0.88 -0.439,1.168 0,0"
             style="fill:#2056ae;fill-opacity:1;fill-rule:evenodd;stroke:none"
             id="path48" />
        </g>
        <g
           id="g50"
           transform="translate(242.6033,342.7164)">
          <path
             d="m 0,0 c -0.136,-0.089 -0.854,-0.897 -0.613,-1.71 0.242,-0.811 -0.21,-0.263 0.743,-1.501 0.953,-1.238 2.984,-0.395 3.089,-0.342 l 1.566,0.792 c 0,0 3.148,1.227 2.77,1.656 C 7.178,-0.676 2.998,-1.513 2.424,-1.454 1.85,-1.396 1.517,-0.458 1.264,0.005 1.01,0.469 0.136,0.09 0,0"
             style="fill:#2056ae;fill-opacity:1;fill-rule:evenodd;stroke:none"
             id="path52" />
        </g>
        <g
           id="g54"
           transform="translate(238.8752,312.726)">
          <path
             d="M 0,0 C -0.006,0.174 2.239,0.885 2.636,0.116 3.032,-0.653 4.843,-2.187 4.513,-3.795 4.181,-5.404 4.02,-5.403 2.787,-6.396 1.554,-7.389 0.742,-8.881 -0.156,-9.081 c -0.899,-0.201 -1.179,-0.747 -1.885,-0.213 -0.705,0.533 -0.071,0.364 0.383,0.91 0.857,1.04 0.798,1.549 0.961,2.151 0.16,0.603 0.559,1.304 0.52,3.095 C -0.2,-2.021 0.077,-1.903 -0.188,-1.12 -0.454,-0.336 0.007,-0.174 0,0"
             style="fill:#2056ae;fill-opacity:1;fill-rule:evenodd;stroke:none"
             id="path56" />
        </g>
        <g
           id="g58"
           transform="translate(276.7195,307.9967)">
          <path
             d="m 0,0 c 0,0 -0.224,-0.824 1.235,-2.993 1.46,-2.17 1.574,-1.604 3.133,-2.464 1.558,-0.859 3.039,-1.117 3.039,-1.117 3.502,2.919 6.375,6.535 9.495,9.856 l 1.137,1.568 c 0,0 2.007,2.318 3.114,2.361 1.38,0.05 1.585,-4.037 0.414,-5.021 -1.176,-0.99 -10.518,-9.855 -9.718,-10.778 0.8,-0.923 9.072,-4.601 9.154,-4.662 1.393,-1.04 1.562,1.007 2.015,0.669 0.493,-0.368 2.823,-3.428 3.107,-4.959 0.285,-1.531 -0.017,-0.757 -0.773,-0.741 -0.757,0.016 -3.156,2.688 -4.302,3.214 -1.145,0.526 -10.714,4.928 -11.399,4.451 -0.686,-0.477 -4.483,-4.234 -4.483,-4.234 0,0 -4.57,-4.771 -7.14,-4.828 -2.571,-0.058 -2.472,-0.115 -4.094,1.097 -0.696,0.521 -0.927,1.356 -1.513,1.982 -0.345,0.371 -0.271,2.41 -0.281,3.063 -0.012,1.091 0.593,1.824 3.435,2.152 1.218,0.141 2.484,-0.647 3.673,-0.347 0.923,0.235 1.817,0.287 2.606,0.708 1.815,0.964 3.321,2.133 2.581,2.467 -0.74,0.332 -3.312,1.588 -3.312,1.588 0,0 -2.078,1.769 -2.502,2.519 -0.613,1.089 -2.427,4.374 -0.343,4.957 C -0.999,0.709 0,0 0,0"
             style="fill:#2056ae;fill-opacity:1;fill-rule:evenodd;stroke:none"
             id="path60" />
        </g>
        <g
           id="g62"
           transform="translate(285.7273,290.1312)">
          <path
             d="m 0,0 c 0.25,-0.417 2.688,-2.221 2.716,-4.853 0.03,-2.631 0.904,-2.827 -0.731,-5.345 -1.634,-2.519 -2.675,-3.043 -3.885,-2.935 -1.211,0.108 -1.557,1.176 -1.669,1.957 -0.553,3.816 1.089,3.582 1.25,6.519 0.06,1.133 0.193,3.989 0.989,4.789 C -0.534,0.931 -0.251,0.418 0,0"
             style="fill:#2056ae;fill-opacity:1;fill-rule:evenodd;stroke:none"
             id="path64" />
        </g>
        <g
           id="g66"
           transform="translate(332.1238,281.9325)">
          <path
             d="m 0,0 c -0.013,0.014 -0.06,-0.908 -0.688,-1.696 -0.489,-0.615 -2.002,-2.516 -2.183,-2.82 -0.897,-1.516 -0.279,-0.465 -1.065,-1.773 -0.489,-0.815 -1.697,-1.674 -2.334,-1.682 -0.636,-0.008 -0.822,-0.146 -1.047,1.033 -0.225,1.179 0.166,2.143 0.774,3.393 0.608,1.249 5.254,4.689 5.888,4.094 C -0.182,0.497 0,0 0,0"
             style="fill:#2056ae;fill-opacity:1;fill-rule:evenodd;stroke:none"
             id="path68" />
        </g>
        <g
           id="g70"
           transform="translate(332.3645,272.7943)">
          <path
             d="M 0,0 C 0.43,-0.944 0.455,-1.39 0.868,-2.015 2.375,-4.3 3.625,-3.567 5.862,-4.764 7.29,-5.531 9.229,-8.056 9.287,-8.129 c 1.761,-2.198 0.098,-3.885 -0.872,-4.151 -1.386,-0.374 -3.417,1.787 -3.983,1.876 -0.508,0.082 -5.63,4.032 -5.476,3.413 0.148,-0.602 1.941,-3.013 1.968,-4.777 0.042,-2.828 -0.019,-3.781 -1.613,-5.201 -1.594,-1.421 -4.05,-3.022 -5.983,-1.779 -1.085,0.701 -1.846,2.091 -2.626,2.788 -0.607,0.54 -1.375,0.511 -1.409,0.362 -0.08,-0.346 -0.939,-0.704 -2.173,-0.689 -1.236,0.015 -1.592,-0.07 -2.766,0.031 -1.175,0.101 -0.936,-0.177 -1.27,-1.016 -0.126,-0.313 -0.102,-0.939 -0.191,-1.38 -0.15,-0.741 -0.376,-1.289 -0.376,-1.289 0,0 0.895,-0.436 1.246,-0.874 0.35,-0.438 1.657,-1.169 1.978,-2.924 0.321,-1.756 0.851,-2.407 0.236,-2.899 -0.615,-0.493 -1.041,-0.62 -1.856,-0.413 -0.814,0.207 -1.353,0.791 -1.247,1.378 0.105,0.587 -1.336,3.862 -1.888,3.564 -0.55,-0.297 -2.441,-1.844 -3.082,-2.255 -1.446,-0.924 -4.99,-3.367 -5.876,0.243 -0.087,0.352 0.35,0.839 0.01,1.636 -0.746,1.755 -2.114,4.072 -2.52,5.182 -0.436,1.197 -0.264,2.349 0.222,1.887 2.027,-1.926 3.428,-5.48 6.807,-5.709 0.987,-0.068 2.427,0.627 2.373,1.583 -0.032,0.593 -1.997,1.784 -3.242,2.797 -0.746,0.609 -1.051,0.761 -1.277,1.272 -0.605,1.376 -1.463,3.411 -0.963,3.597 0.499,0.186 0.768,-0.212 1.743,-1.512 0.976,-1.3 4.424,-4.303 5.029,-4.608 0.604,-0.305 1.096,-0.199 1.517,1.429 0.42,1.629 -0.311,1.469 0.414,1.908 0.13,0.08 0.496,0.371 0.763,0.39 0.298,0.021 0.519,-0.236 0.879,-0.221 1.118,0.043 2.428,-0.121 2.854,0.221 0.701,0.561 1.503,1.548 1.101,2.588 -0.402,1.04 -2.325,1.91 -3.384,1.995 -1.058,0.085 -2.187,-0.277 -2.477,0.353 -0.292,0.631 0.553,0.254 1.49,0.788 0.937,0.534 1.246,0.675 1.676,0.588 0.43,-0.087 3.041,-0.397 3.988,-1.931 0.59,-0.955 1.106,-2.448 1.117,-3.677 0.002,-0.397 0.744,-0.004 0.897,-0.036 0.424,-0.086 2.917,-3.246 3.985,-2.963 1.069,0.282 2.821,0.794 3.679,2.412 1.477,2.784 -0.547,5.734 -2.828,7.084 -2.728,1.614 -10.062,2.712 -10.062,2.712 0,0 -2.703,-0.019 -5.338,-0.587 -2.118,-0.454 -3.85,-2.709 -5.398,-0.776 -0.799,0.997 1.16,3.351 2.109,3.88 0.297,0.165 1.239,0.344 1.527,1.15 0.287,0.806 0.232,1.784 0.758,1.486 0.525,-0.297 1.454,-1.624 3.032,-1.819 6.263,-0.776 7.183,-1.52 13.319,-3.991 0.748,-0.301 0.752,0.377 2.072,-0.535 1.291,-0.894 3.522,-1.42 4.216,-1.403 0.842,0.017 0.852,1.205 -0.136,1.793 -0.633,0.377 -1.221,0.25 -1.903,0.922 -0.681,0.672 -0.96,1.111 -1.054,1.452 C -1.271,-1.688 -0.401,0.876 0,0"
             style="fill:#2056ae;fill-opacity:1;fill-rule:evenodd;stroke:none"
             id="path72" />
        </g>
        <g
           id="g74"
           transform="translate(80.659,253.8548)">
          <path
             d="M 0,0 C 0.165,1.01 0.567,2.279 0.835,2.985 1.103,3.691 2.006,5.845 4.075,6.142 6.144,6.441 6.77,5.643 7.379,4.605 8.912,1.991 6.974,2.515 7.173,0.329 7.382,-1.996 9.03,-4.698 11.855,-7.61 c 0.435,-0.447 0.262,0.159 0.488,0.673 0.226,0.515 -0.193,4.061 -0.651,5.341 -0.458,1.279 -1.165,3.156 -1.87,3.973 -0.706,0.817 -1.389,0.74 -1.329,1.093 0.06,0.355 1.656,6.285 0.796,7.919 -0.862,1.636 -2.313,2.603 -2.883,3.13 -0.572,0.526 -5.381,4.647 -5.818,5.249 -0.437,0.604 -2.933,2.808 -2.815,3.556 0.116,0.747 -0.18,1.388 0.074,1.476 0.254,0.089 0.475,0.649 0.855,0.71 0.381,0.061 0.377,0.614 1.653,-1.425 1.276,-2.038 2.133,-1.516 2.152,-1.676 0.018,-0.159 0.999,0.359 3.163,-0.885 2.164,-1.242 2.865,-1.938 4.211,-4.99 0.908,-2.06 0.971,-3.497 1.726,-4.568 0.399,-0.563 0.861,-1.067 1.429,-1.581 1.658,-1.502 2.585,-2.216 2.881,-2.263 0.298,-0.046 0.841,0.024 0.522,0.938 -0.055,0.154 -0.074,0.396 -0.081,0.563 -0.13,2.887 0.485,5.638 -0.14,7.058 -0.286,0.651 -1.97,2.596 -2.537,2.905 -0.567,0.308 -2.073,1.688 -1.917,2.094 0.138,0.365 0.844,1.491 0.972,2.181 0.289,1.531 -0.26,2.832 -1.619,3.875 -0.454,0.348 -1.323,0.884 -1.886,0.883 -0.563,-0.001 -1.733,0.291 -1.508,1.067 0.224,0.775 0.334,2.255 0.773,2.525 0.438,0.27 1.964,1.129 2.802,1.193 1.383,0.101 2.709,-1.169 3.067,-2.64 0.275,-1.144 -0.26,-2.447 -0.353,-3.153 -0.168,-1.279 -0.25,-3.314 0.307,-3.757 0.558,-0.444 2.02,-1.429 2.465,-1.903 1.416,-1.504 1.732,-0.969 1.966,-0.918 0.234,0.051 0.34,-0.122 0.733,1.17 0.515,1.701 0.502,4.252 0.226,6.58 -0.08,0.696 -0.404,1.111 -0.517,1.697 -0.112,0.585 -0.011,1.345 0.218,1.562 1.103,1.046 0.521,0.941 0.854,1.073 0.333,0.134 2.205,1.137 2.716,-1.081 0.51,-2.219 -0.509,-7.306 0.27,-8.04 0.779,-0.733 3.865,-3.205 4.188,-4.368 0.323,-1.164 2.028,-3.227 3.114,-4.146 0.458,-0.386 2.849,-3.842 6.1,-4.676 4.668,-1.196 4.465,-3.439 4.4,-3.489 -0.838,-0.632 -3.256,-2.01 -4.397,-1.16 -1.141,0.85 -1.769,1.065 -2.158,1.715 -0.39,0.651 -6.553,4.966 -6.975,5.643 -1.242,1.983 -6.457,5.721 -3.539,0.849 0.904,-1.506 1.805,-2.515 1.539,-3.492 -0.265,-0.977 -0.915,-1.648 -1.703,-1.928 -0.788,-0.281 -2.401,0.834 -3.475,1.629 -1.074,0.794 -1.695,3.268 -2.154,3.329 -0.46,0.063 -0.933,0.334 -0.834,-1.611 0.1,-1.946 0.901,-5.619 2.184,-6.863 1.282,-1.243 1.084,-1.127 2.856,-1.982 0.994,-0.482 1.616,-0.998 2.109,-1.172 1.191,-0.422 6.123,-1.848 6.505,-2.503 0.554,-0.948 0.67,-0.588 0.151,-1.026 -0.518,-0.437 -3.082,-0.753 -3.638,-0.595 -0.557,0.158 -4.364,1.46 -4.804,0.907 -0.44,-0.554 -0.905,-0.638 -0.769,-1.54 0.136,-0.901 -0.383,-1.054 -0.383,-1.054 0,0 -1.394,-1.324 -3.154,-0.323 -1.76,1 -2.251,2.039 -2.251,2.039 0.28,1.815 0.953,6.207 0.201,7.744 C 16.049,6.555 13.592,8.292 13.19,8.216 12.789,8.14 12.446,7.562 12.713,6.614 12.979,5.666 12.665,4.606 12.141,4.23 11.617,3.852 10.884,3.816 10.89,2.965 c 0.006,-0.851 0.919,-2.202 0.919,-2.202 0,0 1.29,-2.227 1.938,-3.411 0.647,-1.184 1.974,-3.405 2.815,-4.771 0.84,-1.366 3.077,-2.86 3.087,-3.775 0.009,-0.913 -0.034,-1.408 -0.121,-1.654 -0.595,-1.665 -4.379,-1.26 -6.03,-0.5 -0.379,0.175 -2.115,2.104 -2.521,2.388 -0.134,0.095 0.392,1.124 -0.264,2.419 C 9.467,-6.072 6.572,-2.489 5.274,-1.624 3.289,-0.298 1.821,-2.724 0.79,-2.81 -1.863,-3.032 -0.175,-1.07 0,0 M 20.97,2.366 C 21.285,2.763 21.745,2.319 22.441,1.765 23.138,1.21 23.817,0.75 23.502,0.353 23.186,-0.044 22.358,0.084 21.664,0.635 20.965,1.191 20.654,1.969 20.97,2.366 M 5.254,17.853 c -0.591,0.398 -2.029,1.541 -2.039,2.001 -0.011,0.46 -0.52,0.865 -0.486,1.289 0.035,0.424 0.821,0.937 2.781,-0.401 1.959,-1.336 2.677,-2.43 2.774,-3.639 1.121,-4.101 -2.048,0.09 -3.03,0.75"
             style="fill:#2056ae;fill-opacity:1;fill-rule:evenodd;stroke:none"
             id="path76" />
        </g>
        <g
           id="g78"
           transform="translate(87.0672,194.0528)">
          <path
             d="M 0,0 -0.411,3.456 C -0.677,4.185 -1.828,4.641 -3.854,4.827 L -3.917,5.346 0.164,5.53 1.056,-1.982 -14.049,3.1 l 0.553,-4.66 c 0.423,-0.481 1.475,-0.917 3.166,-1.318 l 0.061,-0.516 -3.842,0.102 -0.995,8.378 z m 0.446,-6.793 c 0.513,0.212 0.72,0.573 0.621,1.083 l 0.536,0.096 0.661,-3.417 -0.536,-0.095 c -0.132,0.681 -0.446,1.041 -0.943,1.069 l -5.795,-1.029 0.81,-4.189 5.703,1.013 c 0.514,0.211 0.709,0.627 0.588,1.254 l 0.536,0.096 0.66,-3.416 -0.536,-0.096 c -0.11,0.569 -0.412,0.869 -0.909,0.898 l -12.03,-2.138 c -0.694,-0.24 -0.985,-0.647 -0.875,-1.215 l -0.533,-0.094 -0.659,3.416 0.532,0.095 c 0.121,-0.628 0.493,-0.943 1.108,-0.954 l 5.791,1.03 -0.81,4.189 -5.97,-1.062 c -0.453,-0.197 -0.615,-0.641 -0.483,-1.322 l -0.532,-0.095 -0.661,3.417 0.533,0.094 c 0.099,-0.511 0.398,-0.782 0.897,-0.814 z m 1.968,-18.721 c 1.42,0.735 2.199,1.397 2.345,1.975 l -0.992,3.434 -5.676,-1.509 c 0.403,-1.394 0.71,-2.455 0.92,-3.181 0.444,-0.244 1.265,-0.268 2.464,-0.068 l 0.145,-0.504 -5.24,-1.393 -0.145,0.503 c 1.016,0.39 1.639,0.829 1.876,1.312 -0.388,1.339 -0.686,2.372 -0.896,3.097 l -5.59,-1.486 c -0.472,-0.307 -0.616,-0.795 -0.423,-1.463 0.565,-1.955 1.109,-3.015 1.626,-3.178 0.516,-0.162 1.406,-0.257 2.67,-0.283 l -0.031,-0.546 -3.974,-0.245 -2.301,7.954 0.522,0.138 c 0.161,-0.557 0.593,-0.954 1.287,-1.189 l 11.79,3.136 c 0.577,0.392 0.76,0.952 0.55,1.677 l 0.522,0.14 2.205,-7.622 -3.509,-1.203 z m -8.996,-9.697 c 0.133,0.51 0.367,0.833 0.698,0.977 0.333,0.144 0.668,0.148 1.003,0.018 0.337,-0.134 0.579,-0.389 0.719,-0.771 0.141,-0.38 0.1,-0.701 -0.128,-0.964 -0.223,-0.26 -0.467,-0.422 -0.732,-0.481 -0.27,-0.059 -0.326,-0.295 -0.176,-0.704 0.151,-0.409 0.732,-0.503 1.742,-0.286 l 10.937,3.714 c 0.469,0.285 0.486,1.027 0.042,2.229 l 0.511,0.173 2.057,-5.571 -0.51,-0.174 c -0.505,1.367 -1.007,2.027 -1.502,1.98 l -9.399,-3.191 c -1.804,-0.491 -3.035,-0.587 -3.692,-0.287 -0.656,0.3 -1.114,0.807 -1.376,1.516 -0.262,0.709 -0.327,1.317 -0.194,1.822 M 12.513,-45.649 1.214,-50.587 c -0.5,-0.345 -0.452,-1.151 0.149,-2.417 l -0.492,-0.215 -2.518,5.298 0.493,0.215 c 0.6,-1.265 1.148,-1.854 1.639,-1.769 l 11.299,4.938 c 0.554,0.371 0.531,1.189 -0.07,2.455 l 0.493,0.215 2.518,-5.298 -0.493,-0.215 c -0.601,1.265 -1.177,1.841 -1.719,1.731 M 7.955,-63.293 c 0.232,0.194 0.571,0.477 1.008,0.85 0.443,0.372 1.039,0.861 1.791,1.47 L 9.236,-58.401 5.95,-59.187 C 5.335,-59.32 5.14,-59.758 5.369,-60.499 l -0.472,-0.256 -1.427,2.421 0.47,0.255 c 0.323,-0.426 1.155,-0.541 2.497,-0.345 l 13.1,3.213 -9.798,-8.809 c -0.693,-0.709 -1.071,-1.182 -1.14,-1.42 -0.068,-0.237 -0.016,-0.508 0.164,-0.811 l -0.471,-0.255 -1.877,3.179 0.472,0.256 c 0.148,-0.252 0.306,-0.401 0.47,-0.444 0.166,-0.047 0.364,0.031 0.598,0.222 m 3.261,2.771 4.266,3.712 -5.649,-1.369 z m 10.569,-2.915 0.57,0.726 c -0.049,0.256 -0.25,0.617 -0.61,1.085 l 0.435,0.309 1.618,-2.099 -5.265,-9.683 6.993,4.964 c 0.462,0.473 0.496,0.965 0.101,1.477 l 0.435,0.309 1.942,-2.516 -0.435,-0.309 c -0.433,0.56 -0.904,0.729 -1.41,0.513 l -11.223,-7.963 6.315,11.834 -8.742,-6.203 c -0.413,-0.435 -0.407,-0.935 0.025,-1.495 l -0.435,-0.309 -1.886,2.444 0.435,0.309 c 0.358,-0.465 0.795,-0.589 1.302,-0.372 z m 10.39,-10.106 c 0.613,-0.445 1.024,-0.868 1.235,-1.269 0.209,-0.406 0.33,-0.863 0.361,-1.377 0.033,-0.517 0.102,-0.766 0.209,-0.753 0.108,0.017 0.41,0.233 0.908,0.656 l 0.3,-0.325 c -0.499,-0.423 -1.028,-0.872 -1.596,-1.354 -0.565,-0.479 -1.26,-1.148 -2.084,-2.001 l -0.3,0.326 c 1.267,1.772 1.906,2.914 1.92,3.426 0.01,0.514 -0.212,1.018 -0.673,1.518 -0.461,0.5 -1.39,0.544 -2.786,0.132 -1.396,-0.413 -2.838,-1.249 -4.333,-2.517 -1.494,-1.268 -2.606,-2.577 -3.335,-3.929 -0.728,-1.355 -0.822,-2.321 -0.281,-2.908 0.54,-0.586 1.058,-0.884 1.551,-0.892 0.489,-0.01 1.709,0.812 3.655,2.462 0.281,0.397 0.224,0.81 -0.178,1.246 l 0.406,0.343 2.342,-2.537 -0.406,-0.344 c -0.4,0.432 -0.846,0.52 -1.331,0.261 l -2.919,-2.476 c -1.376,-0.083 -2.575,0.385 -3.601,1.411 -1.028,1.025 -1.279,2.322 -0.748,3.891 0.528,1.571 1.662,3.093 3.406,4.573 1.74,1.476 3.403,2.366 4.983,2.662 1.583,0.299 2.68,0.225 3.295,-0.225 m 11.903,-23.878 c -1.124,-1.216 -2.185,-2.043 -3.182,-2.479 -0.997,-0.435 -1.978,-0.259 -2.947,0.528 -0.973,0.787 -1.425,1.648 -1.361,2.586 0.067,0.937 0.549,2.064 1.448,3.376 l 5.515,6.892 c 0.272,0.534 0.17,0.974 -0.311,1.328 l 0.329,0.412 3.022,-2.223 -0.33,-0.413 c -0.527,0.389 -0.989,0.434 -1.377,0.136 l -5.738,-7.169 c -0.761,-1.049 -1.199,-1.951 -1.309,-2.707 -0.113,-0.757 0.169,-1.386 0.838,-1.878 0.672,-0.494 1.359,-0.561 2.064,-0.205 0.706,0.359 1.568,1.076 2.581,2.153 l 5.463,6.829 c 0.236,0.481 0.068,0.936 -0.509,1.36 l 0.329,0.413 2.734,-2.012 -0.33,-0.412 c -0.622,0.459 -1.168,0.496 -1.633,0.104 z m 10.013,3.23 0.26,0.875 c -0.141,0.222 -0.462,0.489 -0.976,0.802 l 0.291,0.438 2.296,-1.403 -1.296,-10.849 4.673,7.036 c 0.254,0.602 0.103,1.072 -0.458,1.415 l 0.291,0.437 2.753,-1.681 -0.292,-0.438 c -0.612,0.374 -1.115,0.37 -1.508,-0.006 l -7.501,-11.29 1.474,13.218 -5.843,-8.794 c -0.223,-0.55 -0.031,-1.015 0.582,-1.389 l -0.292,-0.438 -2.673,1.634 0.29,0.438 c 0.509,-0.311 0.963,-0.276 1.355,0.1 z m 13.971,-7.574 -5.345,-10.747 c -0.152,-0.571 0.426,-1.16 1.734,-1.758 l -0.233,-0.469 -5.479,2.506 0.232,0.468 c 1.309,-0.598 2.123,-0.711 2.443,-0.344 l 5.346,10.747 c 0.174,0.626 -0.391,1.238 -1.7,1.838 l 0.232,0.468 5.481,-2.506 -0.233,-0.469 c -1.31,0.598 -2.136,0.685 -2.478,0.266 m 13.014,-5.614 c 0.42,0.782 0.312,1.279 -0.315,1.493 l 0.18,0.489 2.994,-1.017 -0.181,-0.49 c -0.686,0.234 -1.144,0.204 -1.378,-0.086 l -8.344,-11.919 1.14,12.984 c 0.08,1.263 -0.164,1.991 -0.732,2.184 l 0.181,0.49 3.587,-1.218 -0.181,-0.49 c -0.853,0.289 -1.338,-0.069 -1.452,-1.076 l -0.956,-9.357 z m 12.213,-5.382 c 0.046,1.547 -0.162,2.526 -0.61,2.936 l -3.598,0.892 -1.475,-5.468 c 1.461,-0.361 2.572,-0.637 3.332,-0.826 0.442,0.247 0.874,0.917 1.294,2.012 l 0.528,-0.131 -1.362,-5.048 -0.527,0.131 c 0.155,1.038 0.07,1.775 -0.246,2.213 -1.404,0.349 -2.486,0.617 -3.246,0.806 l -1.453,-5.385 c 0.04,-0.547 0.41,-0.91 1.11,-1.083 2.048,-0.509 3.277,-0.587 3.683,-0.24 0.405,0.348 0.935,1.04 1.59,2.076 l 0.478,-0.298 -1.766,-3.423 -8.334,2.066 0.137,0.503 c 0.583,-0.145 1.158,0.016 1.717,0.475 l 3.063,11.359 c -0.065,0.674 -0.48,1.107 -1.24,1.295 l 0.135,0.503 7.986,-1.981 -0.668,-3.515 z m 6.293,-6.183 -0.763,-4.9 c 0.03,-0.588 0.405,-0.938 1.12,-1.041 l -0.08,-0.513 -3.764,0.539 0.08,0.513 c 0.658,-0.094 1.086,0.111 1.287,0.607 l 1.849,11.864 c -0.041,0.531 -0.387,0.846 -1.045,0.941 l 0.08,0.513 3.943,-0.565 c 1.237,-0.294 2.093,-0.768 2.574,-1.422 0.477,-0.653 0.631,-1.541 0.458,-2.656 -0.175,-1.119 -0.565,-1.941 -1.167,-2.469 -0.599,-0.533 -0.999,-0.839 -1.196,-0.927 l 1.206,-5.182 c 0.299,-1.216 0.806,-1.904 1.512,-2.065 l -0.08,-0.513 -2.598,0.371 -1.66,7.006 c -0.956,0.137 -1.541,0.101 -1.756,-0.101 m 3.721,6.231 c -0.289,0.51 -0.758,0.813 -1.416,0.908 -0.658,0.094 -1.07,0.006 -1.233,-0.262 l -0.803,-5.157 c 0.064,-0.362 0.397,-0.585 0.993,-0.671 0.658,-0.094 1.22,0.073 1.682,0.505 0.467,0.432 0.784,1.192 0.954,2.282 0.17,1.089 0.11,1.885 -0.177,2.395 m 14.433,-13.278 c -0.806,-0.759 -1.691,-1.13 -2.658,-1.106 -0.966,0.025 -1.732,0.159 -2.301,0.407 -0.566,0.244 -0.986,0.459 -1.252,0.639 -0.265,0.181 -0.44,-0.104 -0.522,-0.855 l -0.545,0.014 0.13,4.779 0.546,-0.014 c 0.031,-1.102 0.307,-2.022 0.829,-2.762 0.525,-0.736 1.254,-1.119 2.193,-1.142 0.936,-0.024 1.666,0.221 2.195,0.728 0.528,0.51 0.801,1.196 0.826,2.067 0.023,0.868 -0.44,1.617 -1.39,2.25 -0.95,0.632 -1.721,1.16 -2.312,1.582 -0.592,0.419 -1.184,0.868 -1.778,1.346 -0.59,0.48 -0.886,1.269 -0.887,2.371 0,1.102 0.372,1.99 1.118,2.669 0.741,0.675 1.551,1.018 2.429,1.022 0.875,0.007 1.522,-0.079 1.944,-0.264 0.415,-0.185 0.789,-0.398 1.116,-0.637 0.326,-0.241 0.528,0.102 0.615,1.027 l 0.545,-0.013 -0.132,-4.864 -0.546,0.014 c -0.437,1.692 -0.802,2.743 -1.093,3.154 -0.29,0.416 -0.857,0.646 -1.702,0.696 -0.847,0.051 -1.518,-0.165 -2.015,-0.643 -0.496,-0.48 -0.753,-1.097 -0.773,-1.85 -0.021,-0.753 0.489,-1.478 1.526,-2.171 1.038,-0.69 1.828,-1.203 2.361,-1.536 0.536,-0.333 1.143,-0.796 1.823,-1.392 0.676,-0.596 0.999,-1.476 0.968,-2.632 -0.032,-1.161 -0.449,-2.122 -1.258,-2.884 m 10.606,12.494 0.759,-11.884 c 0.156,-0.57 0.959,-0.817 2.406,-0.732 l 0.033,-0.519 -6.061,-0.355 -0.033,0.519 c 1.449,0.084 2.217,0.363 2.311,0.833 l -0.758,11.886 c -0.164,0.628 -0.968,0.901 -2.416,0.816 l -0.033,0.518 6.06,0.355 0.033,-0.518 c -1.447,-0.084 -2.214,-0.394 -2.301,-0.919 m 14.609,2.089 c -1.435,-0.206 -2.188,-0.463 -2.263,-0.767 l 1.85,-11.86 c 0.19,-0.442 0.765,-0.595 1.721,-0.458 l 0.08,-0.514 -4.571,-0.655 -0.08,0.514 c 0.956,0.137 1.451,0.474 1.494,1.005 l -1.836,11.776 c -0.166,0.268 -0.668,0.347 -1.501,0.227 -0.711,-0.161 -1.164,-0.387 -1.361,-0.678 -0.201,-0.296 -0.306,-0.996 -0.317,-2.112 l -0.535,-0.076 -0.356,3.462 9.141,1.31 0.715,-3.411 -0.535,-0.077 c -0.574,1.324 -1.123,2.093 -1.646,2.314 m 10.537,-11.343 c 0.647,0.149 0.981,0.435 0.998,0.858 l -1.227,4.902 -3.853,6.083 c -0.421,0.677 -1.009,0.931 -1.776,0.754 l -0.127,0.505 3.704,0.853 0.127,-0.505 c -0.587,-0.135 -0.716,-0.493 -0.384,-1.072 l 3.091,-5.276 0.872,6.188 c 0.022,0.661 -0.35,0.903 -1.112,0.727 l -0.127,0.506 3.173,0.73 0.127,-0.504 c -0.707,-0.163 -1.09,-0.491 -1.154,-0.983 l -1.241,-7.703 1.207,-4.817 c 0.232,-0.423 0.699,-0.556 1.402,-0.394 l 0.127,-0.505 -3.7,-0.852 z m 15.851,17.145 c 0.146,1.564 0.539,2.582 1.182,3.059 0.644,0.477 1.369,0.765 2.176,0.864 0.807,0.1 1.854,-0.347 3.134,-1.344 1.28,-0.996 2.317,-2.419 3.115,-4.265 0.798,-1.847 1.147,-3.635 1.046,-5.369 -0.1,-1.734 -0.878,-2.889 -2.328,-3.465 -1.455,-0.578 -2.838,-0.28 -4.163,0.887 -1.321,1.169 -2.382,2.674 -3.179,4.521 -0.798,1.846 -1.124,3.551 -0.983,5.112 m 2.658,-4.446 c 0.798,-1.847 1.658,-3.227 2.579,-4.149 0.921,-0.92 1.619,-1.365 2.095,-1.331 0.475,0.032 0.894,0.197 1.254,0.497 0.364,0.301 0.544,1.096 0.542,2.378 10e-4,1.289 -0.395,2.854 -1.193,4.7 -0.798,1.847 -1.696,3.28 -2.692,4.294 -0.992,1.018 -1.91,1.36 -2.746,1.028 -0.839,-0.334 -1.219,-1.19 -1.145,-2.574 0.074,-1.38 0.508,-2.997 1.306,-4.843 m 15.495,8.219 c 0.257,0.394 0.147,1.131 -0.32,2.204 l 0.476,0.248 2.551,-4.504 -0.477,-0.248 c -0.714,1.012 -1.258,1.553 -1.639,1.62 l -3.425,-1.784 2.986,-5.273 c 0.39,-0.324 1.022,-0.29 1.901,0.1 l 0.258,-0.456 -4.06,-2.115 -0.259,0.458 c 0.69,0.359 1.068,0.724 1.135,1.088 l -6.01,10.614 c -0.506,0.529 -1.129,0.602 -1.873,0.214 l -0.258,0.456 8.204,4.272 1.888,-2.971 -0.479,-0.249 c -0.954,0.954 -1.729,1.538 -2.333,1.752 l -4.3,-2.239 2.769,-4.888 z m 15.403,16.725 c -1.151,-0.847 -1.679,-1.423 -1.591,-1.722 l 7.613,-9.514 c 0.39,-0.298 0.97,-0.165 1.738,0.4 l 0.329,-0.412 -3.666,-2.697 -0.329,0.411 c 0.766,0.565 1.029,1.089 0.797,1.573 l -7.559,9.447 c -0.282,0.157 -0.76,-0.007 -1.428,-0.499 -0.539,-0.472 -0.821,-0.88 -0.847,-1.226 -0.026,-0.351 0.236,-1.014 0.791,-1.994 l -0.429,-0.316 -2.062,2.863 7.333,5.394 2.35,-2.65 -0.43,-0.316 c -1.172,0.892 -2.041,1.307 -2.61,1.258 m 10.76,6.19 c -1.361,0.835 -2.342,1.168 -2.938,1.012 l -2.651,-2.499 4.128,-4.028 c 1.075,1.014 1.894,1.786 2.455,2.313 0.007,0.49 -0.37,1.191 -1.133,2.099 l 0.389,0.367 3.811,-3.719 -0.389,-0.366 c -0.847,0.662 -1.55,0.972 -2.105,0.938 -1.034,-0.974 -1.831,-1.726 -2.391,-2.253 l 4.065,-3.967 c 0.51,-0.249 1.025,-0.132 1.541,0.354 1.508,1.421 2.211,2.391 2.11,2.902 -0.103,0.513 -0.448,1.305 -1.037,2.377 l 0.513,0.24 2.151,-3.214 -6.141,-5.786 -0.379,0.371 c 0.431,0.405 0.584,0.96 0.461,1.655 l -8.575,8.369 c -0.638,0.293 -1.238,0.175 -1.798,-0.352 l -0.379,0.369 5.883,5.545 2.797,-2.36 z m 6.033,0.631 c -1.629,1.199 -2.746,2.586 -3.351,4.162 -0.603,1.574 -0.716,2.719 -0.338,3.428 0.373,0.711 0.729,1.198 1.056,1.466 0.332,0.269 0.73,0.486 1.204,0.647 0.475,0.166 0.848,0.273 1.116,0.328 0.274,0.056 0.006,0.384 -0.811,0.985 l 0.331,0.411 c 0.48,-0.354 1.03,-0.758 1.652,-1.216 0.627,-0.461 1.513,-0.967 2.667,-1.523 l -0.258,-0.468 c -2.431,0.769 -3.953,1.085 -4.557,0.945 -0.607,-0.138 -1.118,-0.514 -1.528,-1.124 -0.41,-0.61 -0.282,-1.565 0.394,-2.865 0.674,-1.295 1.803,-2.528 3.386,-3.693 1.58,-1.162 3.104,-1.9 4.568,-2.211 1.466,-0.311 2.514,-0.097 3.141,0.643 0.632,0.741 0.883,1.505 0.755,2.296 -0.134,0.789 -0.471,1.604 -1.017,2.445 l 0.62,0.203 c 0.768,-1.514 1.188,-2.683 1.255,-3.5 0.072,-0.819 -0.329,-1.673 -1.197,-2.568 -0.866,-0.895 -2.193,-1.218 -3.971,-0.966 -1.783,0.25 -3.485,0.974 -5.117,2.175 m 3.256,13.923 c -0.529,0.173 -0.933,0.036 -1.216,-0.406 l -0.465,0.273 1.893,2.963 0.465,-0.274 c -0.378,-0.591 -0.396,-1.059 -0.046,-1.399 l 5.025,-2.953 2.321,3.633 -4.946,2.906 c -0.529,0.173 -0.964,-0.012 -1.312,-0.555 l -0.465,0.273 1.893,2.962 0.465,-0.273 c -0.315,-0.493 -0.301,-0.911 0.049,-1.251 l 10.433,-6.13 c 0.682,-0.266 1.183,-0.151 1.498,0.342 l 0.462,-0.271 -1.894,-2.962 -0.462,0.271 c 0.348,0.544 0.292,1.016 -0.158,1.419 l -5.022,2.951 -2.321,-3.633 5.176,-3.042 c 0.475,-0.144 0.905,0.082 1.283,0.673 l 0.462,-0.271 -1.894,-2.963 -0.461,0.271 c 0.282,0.444 0.249,0.837 -0.099,1.181 z m 6.198,10.588 -0.937,0.141 c -0.213,-0.162 -0.45,-0.501 -0.712,-1.026 l -0.488,0.223 1.172,2.357 11.388,0.087 -7.853,3.592 c -0.653,0.167 -1.122,-0.033 -1.408,-0.609 l -0.489,0.223 1.406,2.825 0.488,-0.223 c -0.314,-0.629 -0.247,-1.108 0.19,-1.435 l 12.6,-5.763 -13.861,-0.209 9.815,-4.489 c 0.596,-0.145 1.054,0.093 1.366,0.723 l 0.489,-0.224 -1.365,-2.744 -0.489,0.223 c 0.26,0.522 0.168,0.95 -0.268,1.277 z m 5.39,10.617 c -1.114,1.149 -1.641,2.111 -1.58,2.889 0.062,0.778 0.323,1.487 0.786,2.128 0.463,0.642 1.51,1.089 3.139,1.334 1.629,0.246 3.426,0.033 5.39,-0.634 1.965,-0.667 3.585,-1.614 4.861,-2.846 1.276,-1.233 1.651,-2.56 1.127,-3.978 -0.526,-1.423 -1.681,-2.211 -3.473,-2.374 -1.79,-0.159 -3.666,0.093 -5.631,0.76 -1.965,0.668 -3.504,1.575 -4.619,2.721 m 5.225,-1.081 c 1.964,-0.667 3.61,-0.979 4.941,-0.939 1.328,0.041 2.14,0.241 2.433,0.602 0.294,0.36 0.445,0.769 0.453,1.227 0.011,0.46 -0.484,1.12 -1.48,1.977 -0.999,0.863 -2.477,1.627 -4.441,2.295 -1.965,0.667 -3.677,0.985 -5.128,0.954 -1.454,-0.025 -2.332,-0.45 -2.635,-1.268 -0.303,-0.821 0.107,-1.665 1.228,-2.538 1.12,-0.872 2.664,-1.643 4.629,-2.31 m -1.709,14.49 11.44,-3.042 c 0.673,-0.06 1.171,0.47 1.493,1.585 l 0.462,1.593 c 0.094,0.757 -0.795,1.805 -2.666,3.146 l 0.144,0.5 3.902,-2.119 -2.302,-7.958 -0.522,0.139 c 0.259,0.893 0.111,1.476 -0.438,1.741 l -11.966,3.182 c -0.554,0.028 -0.964,-0.405 -1.222,-1.299 l -0.522,0.138 1.236,4.274 0.521,-0.138 c -0.258,-0.894 -0.113,-1.475 0.44,-1.742 m 3.157,9.855 c -1.305,0.946 -1.998,1.805 -2.078,2.582 -0.08,0.776 0.049,1.518 0.388,2.226 0.339,0.709 1.29,1.324 2.85,1.837 1.56,0.512 3.367,0.602 5.423,0.272 2.056,-0.329 3.822,-0.992 5.302,-1.993 1.48,-1.001 2.09,-2.245 1.831,-3.73 -0.26,-1.489 -1.256,-2.456 -2.991,-2.916 -1.734,-0.454 -3.627,-0.519 -5.682,-0.189 -2.056,0.329 -3.737,0.968 -5.043,1.911 m 5.342,-0.196 c 2.056,-0.329 3.732,-0.362 5.036,-0.101 1.3,0.261 2.064,0.594 2.287,0.997 0.224,0.404 0.298,0.833 0.225,1.284 -0.074,0.456 -0.68,1.023 -1.817,1.701 -1.14,0.683 -2.734,1.191 -4.789,1.521 -2.056,0.33 -3.799,0.357 -5.223,0.085 -1.427,-0.266 -2.216,-0.831 -2.365,-1.688 -0.15,-0.859 0.407,-1.622 1.67,-2.294 1.259,-0.672 2.92,-1.175 4.976,-1.505 m -5.553,14.872 c -0.092,0.732 -0.06,1.31 0.095,1.734 0.159,0.426 0.418,0.828 0.782,1.205 0.365,0.382 0.503,0.602 0.419,0.668 -0.087,0.062 -0.459,0.12 -1.123,0.17 l 0.036,0.433 c 0.664,-0.05 1.369,-0.104 2.125,-0.161 0.751,-0.056 1.735,-0.071 2.948,-0.047 L 246.24,-1.65 c -2.209,-0.358 -3.511,-0.71 -3.904,-1.055 -0.393,-0.35 -0.617,-0.854 -0.671,-1.52 -0.055,-0.665 0.557,-1.336 1.835,-2.013 1.28,-0.677 2.91,-1.089 4.9,-1.24 1.989,-0.15 3.742,-0.007 5.264,0.429 1.522,0.439 2.312,1.045 2.376,1.825 0.064,0.78 -0.072,1.345 -0.408,1.69 -0.333,0.346 -1.796,0.615 -4.387,0.811 -0.492,-0.082 -0.763,-0.407 -0.81,-0.988 l -0.54,0.041 0.277,3.378 0.54,-0.04 c -0.047,-0.576 0.198,-0.945 0.728,-1.1 l 3.887,-0.293 c 1.017,-0.892 1.5,-2.045 1.441,-3.464 -0.054,-1.421 -0.852,-2.495 -2.397,-3.22 -1.546,-0.726 -3.476,-1.002 -5.798,-0.827 -2.317,0.175 -4.139,0.704 -5.459,1.588 -1.324,0.885 -2.03,1.693 -2.12,2.429 m 15.34,10.921 c 0.006,0.638 -0.203,1.018 -0.627,1.136 l -5.255,0.045 -7.089,-2.114 c -0.787,-0.227 -1.186,-0.713 -1.193,-1.47 l -0.541,0.005 0.033,3.652 0.542,-0.004 c -0.006,-0.579 0.325,-0.785 0.992,-0.616 l 6.086,1.599 -6.051,2.309 c -0.663,0.179 -0.999,-0.107 -1.006,-0.86 l -0.541,0.004 0.028,3.13 0.542,-0.004 c -0.006,-0.697 0.234,-1.133 0.715,-1.312 l 7.494,-3.018 5.167,-0.042 c 0.484,0.114 0.731,0.515 0.738,1.209 l 0.541,-0.004 -0.033,-3.649 z"
             style="fill:#2056ae;fill-opacity:1;fill-rule:nonzero;stroke:none"
             id="path80" />
        </g>
        <g
           id="g82"
           transform="translate(184.5896,121.6222)">
          <path
             d="M 0,0 H -1.765 V 11.238 C -2.189,10.831 -2.748,10.426 -3.437,10.021 -4.125,9.617 -4.747,9.312 -5.295,9.113 v 1.704 c 0.985,0.461 1.848,1.023 2.587,1.685 0.739,0.659 1.264,1.297 1.571,1.918 H 0 Z m 10.109,3.33 1.685,0.139 c 0.144,-0.795 0.417,-1.37 0.823,-1.728 0.404,-0.357 0.922,-0.537 1.557,-0.537 0.542,0 1.016,0.123 1.427,0.374 0.412,0.247 0.746,0.578 1.003,0.996 0.257,0.415 0.475,0.976 0.652,1.682 0.178,0.705 0.264,1.424 0.264,2.156 0,0.076 -0.003,0.196 -0.01,0.354 C 17.159,6.204 16.678,5.746 16.07,5.399 15.461,5.048 14.799,4.874 14.091,4.874 c -1.188,0 -2.19,0.431 -3.012,1.293 -0.819,0.86 -1.231,1.996 -1.231,3.406 0,1.458 0.429,2.628 1.287,3.518 0.857,0.885 1.929,1.329 3.223,1.329 0.929,0 1.782,-0.25 2.557,-0.755 0.772,-0.501 1.357,-1.217 1.758,-2.149 0.402,-0.93 0.602,-2.277 0.602,-4.038 0,-1.835 -0.197,-3.296 -0.595,-4.383 -0.398,-1.089 -0.993,-1.916 -1.779,-2.483 -0.785,-0.569 -1.704,-0.853 -2.76,-0.853 -1.123,0 -2.039,0.311 -2.751,0.937 -0.709,0.624 -1.137,1.503 -1.281,2.634 m 7.2,6.334 c 0,1.009 -0.267,1.812 -0.802,2.403 -0.53,0.592 -1.179,0.889 -1.942,0.889 -0.789,0 -1.471,-0.317 -2.046,-0.956 -0.578,-0.638 -0.865,-1.467 -0.865,-2.483 0,-0.913 0.274,-1.655 0.819,-2.224 0.548,-0.571 1.23,-0.855 2.042,-0.855 0.816,0 1.485,0.284 2.009,0.855 0.525,0.569 0.785,1.361 0.785,2.371 m 9.007,-5.893 1.846,0.141 c 0.136,-0.9 0.454,-1.575 0.949,-2.03 0.494,-0.451 1.099,-0.678 1.811,-0.678 0.86,0 1.578,0.32 2.163,0.958 0.582,0.642 0.873,1.492 0.873,2.548 0,1.006 -0.278,1.798 -0.836,2.38 -0.559,0.582 -1.297,0.872 -2.216,0.872 -0.572,0 -1.083,-0.13 -1.538,-0.391 -0.451,-0.26 -0.806,-0.598 -1.067,-1.013 l -1.664,0.241 1.384,7.381 h 7.12 V 12.495 H 29.428 L 28.662,8.62 c 0.86,0.606 1.763,0.907 2.705,0.907 1.25,0 2.306,-0.434 3.166,-1.304 0.859,-0.869 1.289,-1.986 1.289,-3.349 0,-1.3 -0.377,-2.424 -1.133,-3.37 -0.919,-1.163 -2.175,-1.745 -3.767,-1.745 -1.303,0 -2.366,0.368 -3.192,1.101 -0.826,0.732 -1.297,1.701 -1.414,2.911 m 16.467,0.04 1.766,0.241 c 0.203,-1.003 0.544,-1.725 1.03,-2.167 0.484,-0.441 1.079,-0.661 1.784,-0.661 0.835,0 1.541,0.287 2.11,0.862 0.568,0.575 0.852,1.287 0.852,2.135 0,0.81 -0.264,1.479 -0.796,2.006 -0.528,0.525 -1.199,0.79 -2.019,0.79 -0.334,0 -0.749,-0.068 -1.246,-0.198 l 0.196,1.545 c 0.118,-0.013 0.214,-0.02 0.285,-0.02 0.755,0 1.43,0.197 2.035,0.588 0.602,0.39 0.903,0.993 0.903,1.805 0,0.645 -0.221,1.18 -0.659,1.604 -0.437,0.425 -1.002,0.636 -1.694,0.636 -0.689,0 -1.26,-0.217 -1.718,-0.653 C 45.153,11.89 44.86,11.238 44.729,10.37 l -1.765,0.32 c 0.218,1.183 0.705,2.103 1.471,2.755 0.763,0.651 1.714,0.975 2.852,0.975 0.781,0 1.504,-0.167 2.162,-0.504 0.662,-0.334 1.167,-0.792 1.515,-1.371 0.35,-0.582 0.524,-1.197 0.524,-1.848 0,-0.618 -0.167,-1.18 -0.498,-1.688 C 50.656,8.5 50.161,8.096 49.509,7.795 50.358,7.601 51.017,7.194 51.488,6.575 51.956,5.96 52.19,5.184 52.19,4.259 c 0,-1.254 -0.458,-2.32 -1.371,-3.193 -0.916,-0.872 -2.072,-1.307 -3.469,-1.307 -1.26,0 -2.307,0.378 -3.139,1.131 -0.836,0.752 -1.31,1.724 -1.428,2.921"
             style="fill:#2056ae;fill-opacity:1;fill-rule:nonzero;stroke:none"
             id="path84" />
        </g>
        <g
           id="g86"
           transform="translate(266.51,167.5836)">
          <path
             d="m 0,0 h -16.725 -27.233 l -3.619,9.31 -5.709,14.686 -10e-4,-10e-4 -6.724,17.293 L -76.067,0 h -27.229 -16.729 c -3.906,0 -7.083,3.177 -7.083,7.084 0,3.906 3.177,7.084 7.083,7.084 h 33.736 l 20.526,47.886 5.751,13.414 7.62,-17.786 h 0.004 L -33.736,14.168 H 0 c 3.906,0 7.083,-3.178 7.083,-7.084 C 7.083,3.177 3.906,0 0,0 m -99.794,72.111 c -3.988,0 -7.232,3.244 -7.232,7.232 0,3.984 3.244,7.228 7.232,7.228 h 28.842 l -3.098,-7.23 -3.098,-7.23 z m 79.564,14.46 c 3.987,0 7.231,-3.244 7.231,-7.228 0,-3.988 -3.244,-7.232 -7.231,-7.232 h -22.644 l -6.196,14.46 z M 0.204,28.596 h -24.429 l -12.467,29.086 h 16.666 c 11.945,0 21.66,9.715 21.66,21.661 0,11.941 -9.715,21.656 -21.66,21.656 h -29.044 -6.184 l -4.757,11.1 -4.757,-11.1 h -6.184 -29.047 c -11.945,0 -21.66,-9.715 -21.66,-21.656 0,-11.946 9.715,-21.661 21.66,-21.661 h 16.666 L -95.8,28.596 h -24.429 c -11.861,0 -21.513,-9.652 -21.513,-21.512 0,-11.861 9.652,-21.512 21.513,-21.512 h 16.933 37.1 l 1.789,4.6 v 0 l 4.396,11.302 2.789,-7.175 1.604,-4.127 h 0.001 l 1.788,-4.6 h 37.104 16.929 c 11.861,0 21.513,9.651 21.513,21.512 0,11.86 -9.652,21.512 -21.513,21.512"
             style="fill:#2056ae;fill-opacity:1;fill-rule:nonzero;stroke:none"
             id="path88" />
        </g>
      </g>
    </g>
  </g>
</svg>
